<?xml version="1.0" encoding="UTF-8" standalone="no"?>
<!-- Created with Inkscape (http://www.inkscape.org/) -->

<svg
   width="83.451691mm"
   height="21.488998mm"
   viewBox="0 0 83.451691 21.488998"
   version="1.1"
   id="svg1"
   inkscape:export-filename="COM1.svg"
   inkscape:export-xdpi="96"
   inkscape:export-ydpi="96"
   xml:space="preserve"
   xmlns:inkscape="http://www.inkscape.org/namespaces/inkscape"
   xmlns:sodipodi="http://sodipodi.sourceforge.net/DTD/sodipodi-0.dtd"
   xmlns="http://www.w3.org/2000/svg"
   xmlns:svg="http://www.w3.org/2000/svg"><sodipodi:namedview
     id="namedview1"
     pagecolor="#ffffff"
     bordercolor="#000000"
     borderopacity="0.25"
     inkscape:showpageshadow="2"
     inkscape:pageopacity="0.0"
     inkscape:pagecheckerboard="0"
     inkscape:deskcolor="#d1d1d1"
     inkscape:document-units="mm" /><defs
     id="defs1" /><g
     inkscape:label="Capa 1"
     inkscape:groupmode="layer"
     id="layer1"
     transform="translate(-13.026739,-115.88749)"><text
       xml:space="preserve"
       style="font-style:normal;font-variant:normal;font-weight:normal;font-stretch:normal;font-size:7.41392px;font-family:'Arial Black';-inkscape-font-specification:'Arial Black, ';word-spacing:0.0185208px;fill:#ff6600;stroke-width:0.505492"
       x="20.401726"
       y="136.43834"
       id="text5"><tspan
         sodipodi:role="line"
         id="tspan5"
         x="20.401726"
         y="136.43834"
         style="word-spacing:0.0185208px;fill:#ff6600;stroke-width:0.505492"
         dx="2.3944793 1.3229166 0 0 0 1.3414376 0 0.7858125 0.54239583 0.79374999 -0.0026458332">CASA LUPITA</tspan></text><path
       style="fill:#ff6600;stroke-width:0.264583"
       d="m 27.056126,117.14131 3.846469,-0.0242 v 2.37078 l -3.798086,3.29006 z"
       id="path1" /><path
       style="fill:#ff6600;stroke-width:0.264583"
       d="m 22.754167,128.81968 1.60797,1.84746 13.103245,-11.59792 13.137459,11.59792 1.642181,-1.77904 -14.848064,-13.0006 z"
       id="path2" /><path
       style="fill:#ff6600;stroke-width:0.264583"
       d="m 30.930865,117.20466 -3.883076,-0.0342 v 5.66211 l 3.883076,-3.40411 z"
       id="path4" /><text
       xml:space="preserve"
       style="font-size:4.23333px;font-family:'Arial Black';-inkscape-font-specification:'Arial Black, ';word-spacing:0.0185208px;fill:#ff6600;stroke-width:0.264583"
       x="84.541183"
       y="136.40427"
       id="text1"><tspan
         sodipodi:role="line"
         id="tspan1"
         style="font-size:4.23333px;fill:#ff6600;stroke-width:0.264583"
         x="84.541183"
         y="136.40427"><tspan
   style="fill:#ff6600"
   id="tspan3">.</tspan>COM</tspan></text><path
       style="fill:#ff6600;fill-opacity:1;stroke:none;stroke-width:0.00195756;stroke-dasharray:none;stroke-opacity:1"
       d="m 17.437053,135.99871 c -0.223297,-0.01 -0.451232,-0.0434 -1.146212,-0.16855 -0.275973,-0.0497 -0.660685,-0.11686 -0.854911,-0.14925 -0.194227,-0.0324 -0.362851,-0.0609 -0.374721,-0.0633 l -0.02158,-0.004 v -0.98853 -0.98854 l 0.268609,-0.30372 c 0.505179,-0.57123 0.952887,-1.07274 1.064246,-1.19213 0.08946,-0.0959 0.116291,-0.12015 0.136705,-0.12348 0.0475,-0.008 0.942511,-0.0905 1.190757,-0.11013 0.381448,-0.0301 0.608614,-0.0422 0.890698,-0.0474 l 0.25897,-0.005 0.516001,0.70809 0.516001,0.70809 -0.0019,1.13773 -0.0019,1.13772 -1.15359,0.23027 c -0.634474,0.12665 -1.155354,0.22973 -1.157512,0.22907 -0.0021,-6.2e-4 -0.06043,-0.004 -0.129486,-0.007 z m 0.17657,-0.14587 c 0.223338,-0.0342 0.575631,-0.10069 1.345854,-0.25382 0.410036,-0.0815 0.754347,-0.14937 0.765137,-0.15077 0.01837,-0.002 0.01999,-0.006 0.02526,-0.0614 0.0031,-0.0324 0.008,-0.50951 0.0108,-1.06031 l 0.0052,-1.00144 -0.375124,-0.51313 c -0.206319,-0.28223 -0.428362,-0.58515 -0.493429,-0.67317 l -0.118307,-0.16003 -0.184415,0.005 c -0.237163,0.006 -0.484796,0.0228 -1.483188,0.1002 l -0.514014,0.0398 -0.02746,0.0206 c -0.04818,0.0361 -0.243316,0.23557 -0.400859,0.40975 -0.21683,0.23972 -0.299631,0.33271 -0.6768,0.76007 l -0.334901,0.37948 v 0.90556 c 0,0.56723 0.0028,0.90557 0.0075,0.90557 0.0041,0 0.155072,0.0263 0.335484,0.0584 0.78537,0.13997 1.563634,0.27116 1.834748,0.30927 0.06662,0.009 0.11074,0.006 0.278589,-0.0194 z"
       id="path7096" /><path
       style="fill:#ff6600;fill-opacity:1;stroke:none;stroke-width:0;stroke-dasharray:none;stroke-opacity:1"
       d="m 16.930887,135.53905 c -0.01511,-0.002 -0.0603,-0.007 -0.100436,-0.0111 -0.07806,-0.009 -0.291572,-0.0527 -0.302366,-0.0626 -0.0035,-0.003 -0.01482,-0.25744 -0.02499,-0.56481 -0.01716,-0.5185 -0.01951,-0.55961 -0.03274,-0.56935 -0.0829,-0.0611 -0.176163,-0.0901 -0.290164,-0.0901 h -0.0733 l -1.26e-4,0.0569 c -6.2e-5,0.0313 -0.0071,0.25819 -0.01556,0.50421 -0.0085,0.24602 -0.01549,0.46812 -0.01556,0.49356 l -1.26e-4,0.0462 -0.131447,-0.006 c -0.287785,-0.0116 -0.443149,-0.0304 -0.536094,-0.0649 l -0.05689,-0.0211 0.0052,-0.2118 c 0.0029,-0.11648 0.0052,-0.44886 0.0052,-0.73861 v -0.52682 l 0.510693,-0.58037 0.51069,-0.58038 0.08376,-0.002 0.08376,-0.002 0.372758,0.57854 0.372759,0.57853 0.0024,0.051 c 0.0026,0.0565 -0.0277,1.71136 -0.03142,1.71479 -0.0042,0.004 -0.307654,0.0101 -0.335854,0.007 z m 0.251088,-0.89576 -3.8e-5,-0.79849 -0.353828,-0.5611 c -0.194607,-0.3086 -0.356607,-0.56402 -0.36,-0.56759 -0.0034,-0.004 -0.178641,0.19241 -0.389438,0.43553 -0.210798,0.24312 -0.431939,0.49768 -0.491423,0.56568 l -0.108156,0.12363 v 0.67365 0.67365 l 0.09221,0.005 c 0.108889,0.006 0.190704,0.0196 0.312314,0.0521 0.04899,0.013 0.09279,0.0238 0.09733,0.0238 0.0057,0 0.0082,-0.17792 0.0082,-0.57287 v -0.57287 l 0.151067,1.3e-4 c 0.18442,1.8e-4 0.298313,0.0141 0.396253,0.0485 l 0.07254,0.0255 0.0019,0.58863 0.0019,0.58862 0.149102,0.0217 c 0.18304,0.0267 0.324062,0.0432 0.378644,0.0444 l 0.0412,0.001 z"
       id="path7097" /><path
       style="fill:#ff6600;fill-opacity:1;stroke:none;stroke-width:0;stroke-dasharray:none;stroke-opacity:1"
       d="m 13.215074,137.33222 c -0.07337,-0.026 -0.145768,-0.0514 -0.160875,-0.0564 -0.02386,-0.008 -0.02746,-0.0311 -0.02746,-0.1763 0,-0.16435 8.7e-4,-0.16841 0.05389,-0.24712 0.171225,-0.25425 0.70094,-0.65908 1.344327,-1.02738 l 0.224371,-0.12845 0.157879,0.009 c 0.178104,0.0104 0.294074,0.0331 0.895548,0.1753 1.03111,0.24382 1.506504,0.32187 1.96059,0.32192 0.215442,2e-5 0.232326,-0.002 1.232065,-0.19718 l 1.01363,-0.19719 0.123905,-0.12302 0.123906,-0.12302 -0.04275,-1.21399 -0.04275,-1.21398 -0.0537,-0.0556 -0.0537,-0.0556 v -0.39275 -0.39276 l 0.117244,-0.0819 c 0.09672,-0.0675 0.11988,-0.0921 0.132306,-0.14022 0.0083,-0.0321 0.02792,-0.1057 0.04363,-0.16359 l 0.02857,-0.10523 0.557176,-0.41841 c 1.469771,-1.10371 1.622767,-1.19595 2.13251,-1.28557 l 0.125191,-0.022 0.177767,0.075 0.177765,0.075 0.07678,0.18308 0.07677,0.18308 -0.06886,0.23111 c -0.03787,0.12712 -0.08302,0.24704 -0.100317,0.26651 -0.0173,0.0195 -0.147992,0.13754 -0.290425,0.26238 l -0.258969,0.227 -0.494395,0.25063 c -0.979729,0.49667 -1.340867,0.64254 -1.742157,0.70366 -0.09064,0.0138 -0.167839,0.0277 -0.171555,0.0308 -0.007,0.006 -0.06159,1.14736 -0.06305,1.31813 l -8.08e-4,0.0965 -0.0824,0.0517 c -0.04532,0.0284 -0.08469,0.0532 -0.0875,0.0551 -0.0028,0.002 0.210845,0.32292 0.474776,0.71341 0.52852,0.78195 0.504391,0.73295 0.448949,0.91177 -0.04945,0.15949 -0.08375,0.19709 -0.236367,0.25914 -0.558181,0.22691 -0.927616,0.33331 -2.769706,0.79777 -0.951166,0.23982 -0.961439,0.242 -1.577358,0.33617 -1.034654,0.15816 -1.757627,0.24059 -2.626164,0.29941 -0.592878,0.0401 -0.58887,0.0403 -0.748281,-0.0162 z m 1.028029,-0.14743 0.80045,-0.0374 0.863229,-0.12722 0.863231,-0.12724 0.89462,-0.21302 c 1.168133,-0.27813 1.893385,-0.45959 2.252245,-0.56351 0.261932,-0.0759 0.794811,-0.25125 1.025273,-0.33748 l 0.08908,-0.0334 v -0.15654 -0.15655 l -0.243134,-0.35633 c -0.279658,-0.40987 -0.402787,-0.57258 -0.474916,-0.62755 l -0.05101,-0.0389 -8e-6,0.62589 -8e-6,0.62589 -0.146777,0.13627 -0.146777,0.13626 -0.686889,0.13483 c -0.893856,0.17545 -1.256563,0.23952 -1.598651,0.28238 l -0.27978,0.035 -0.52067,-0.10762 c -0.685905,-0.14177 -1.214755,-0.26029 -1.710167,-0.38329 -0.222607,-0.0553 -0.416966,-0.10048 -0.431908,-0.10048 -0.06327,0 -0.844512,0.5071 -1.133084,0.73549 -0.249988,0.19784 -0.470853,0.42786 -0.470853,0.49037 0,0.0102 0.01507,0.06 0.0335,0.11053 l 0.0335,0.0919 0.119534,-4.8e-4 c 0.06574,-2.3e-4 0.479736,-0.0173 0.919984,-0.0379 z m 6.027254,-3.98561 0.03173,-0.67846 0.05231,-0.0815 0.05231,-0.0815 h 0.19783 0.197828 l 0.330244,-0.14357 c 1.287785,-0.55984 1.678248,-0.78213 2.115536,-1.20433 l 0.168749,-0.16293 v -0.24752 -0.24751 l -0.0935,-0.081 -0.0935,-0.081 -0.321999,0.0317 -0.321996,0.0317 -0.20838,0.13001 c -0.345216,0.21538 -0.81208,0.55708 -1.652327,1.20933 -0.315574,0.24497 -0.329975,0.25851 -0.338457,0.31819 -0.01235,0.0869 -0.06042,0.17298 -0.175131,0.31363 -0.05419,0.0664 -0.111305,0.13749 -0.126928,0.15791 -0.02755,0.036 -0.02699,0.0484 0.01839,0.41037 0.02574,0.20529 0.06302,0.5371 0.08286,0.73734 0.01984,0.20024 0.03981,0.36037 0.04439,0.35583 0.0046,-0.004 0.02261,-0.31357 0.04005,-0.68673 z"
       id="path7098" /><path
       style="fill:#ff6600;fill-opacity:1;stroke:none;stroke-width:0;stroke-dasharray:none;stroke-opacity:1"
       d="m 18.190418,134.72249 v -0.46031 l 0.20796,-0.0409 c 0.229833,-0.0453 0.655085,-0.11151 0.66229,-0.10315 0.0098,0.0114 -0.03124,0.89021 -0.04213,0.90108 -0.02465,0.0246 -0.697325,0.16367 -0.791648,0.16367 h -0.03647 z m 0.376683,0.28009 c 0.116535,-0.0225 0.248963,-0.0482 0.294283,-0.057 l 0.0824,-0.0161 v -0.34418 c 0,-0.28685 -0.0037,-0.34418 -0.02229,-0.34418 -0.01998,0 -0.169758,0.0304 -0.507422,0.10319 l -0.113789,0.0245 v 0.34528 c 0,0.32139 0.0019,0.34473 0.02746,0.33736 0.01511,-0.004 0.122814,-0.0263 0.23935,-0.0489 z"
       id="path7099" /><path
       style="fill:#ff6600;fill-opacity:1;stroke:none;stroke-width:0;stroke-dasharray:none;stroke-opacity:1"
       d="m 17.90823,135.60476 c -0.10111,-0.0404 -0.09449,0.0306 -0.09449,-1.01236 v -0.94653 l -0.248146,-0.38905 c -0.364089,-0.57081 -0.505218,-0.81035 -0.505218,-0.8575 0,-0.0268 0.09743,-0.046 0.408073,-0.0801 0.325944,-0.0358 1.180317,-0.0904 1.192902,-0.0762 0.0061,0.007 0.183865,0.25629 0.3949,0.55411 l 0.383699,0.54148 -0.01658,0.99143 c -0.0091,0.54529 -0.0218,0.99665 -0.02819,1.00303 -0.02241,0.0224 -1.347331,0.29096 -1.421478,0.28818 -0.01461,-4.7e-4 -0.04406,-0.008 -0.06547,-0.0165 z m 0.219408,-0.12254 c 0.126185,-0.0286 1.167721,-0.23663 1.184806,-0.23663 0.0044,0 0.008,-0.42116 0.008,-0.93591 v -0.93592 l -0.363437,-0.49626 c -0.19989,-0.27294 -0.371636,-0.50532 -0.381657,-0.51637 -0.01479,-0.0163 -0.09194,-0.0141 -0.409546,0.0119 -0.631776,0.0517 -0.917112,0.0964 -0.917112,0.14363 0,0.008 0.151849,0.25316 0.337444,0.54399 l 0.337444,0.52878 v 0.96963 0.96962 l 0.03532,-0.008 c 0.01942,-0.004 0.09535,-0.0217 0.168722,-0.0384 z"
       id="path7100" /><path
       style="fill:#ff6600;fill-opacity:1;stroke:none;stroke-width:0;stroke-dasharray:none;stroke-opacity:1"
       d="m 13.190511,137.16438 c -0.0469,-0.11038 -0.04656,-0.15506 0.0017,-0.22472 0.05632,-0.0813 0.270021,-0.28369 0.43566,-0.41265 0.317981,-0.24758 1.050415,-0.7164 1.11923,-0.7164 0.02064,0 0.241754,0.0492 0.491365,0.1093 0.5185,0.12487 1.030631,0.23904 1.69633,0.37815 l 0.463006,0.0968 0.306053,-0.0405 c 0.366526,-0.0485 0.796911,-0.1245 1.643463,-0.29011 l 0.631129,-0.12346 0.13793,-0.13056 0.137931,-0.13054 0.0078,-0.62652 0.0078,-0.62652 0.04388,0.0345 c 0.05857,0.0461 0.224408,0.26778 0.494703,0.66132 l 0.222632,0.32415 v 0.14358 0.14358 l -0.05101,0.0213 c -0.101775,0.0424 -0.669803,0.23207 -0.945629,0.31576 -0.326097,0.099 -1.436244,0.37907 -2.534758,0.63959 -0.761026,0.18048 -0.761424,0.18056 -1.63229,0.30719 l -0.871077,0.12666 -0.73767,0.0313 c -0.405718,0.0172 -0.806424,0.035 -0.890459,0.0396 l -0.15279,0.008 z"
       id="path7101" /><path
       style="fill:#ff6600;fill-opacity:1;stroke:#000000;stroke-width:0;stroke-dasharray:none;stroke-opacity:1"
       d="m 13.189534,137.31526 -0.143253,-0.0506 -0.0075,-0.0874 c -0.01237,-0.14385 0.0074,-0.25689 0.05772,-0.32945 0.06652,-0.096 0.324905,-0.33807 0.503119,-0.47137 0.224933,-0.16824 0.5282,-0.36733 0.810101,-0.53181 l 0.245067,-0.14298 0.173579,0.0152 c 0.201667,0.0177 0.206867,0.0188 0.969135,0.19372 1.010512,0.23198 1.276264,0.2759 1.741597,0.28784 0.379092,0.01 0.299007,0.0215 1.669234,-0.245 l 0.711833,-0.13843 0.122862,-0.12382 0.122861,-0.12381 -0.04366,-1.22114 -0.04366,-1.22115 -0.05729,-0.0586 -0.05729,-0.0586 v -0.37857 -0.37857 l 0.0981,-0.0701 c 0.136445,-0.0976 0.145005,-0.11 0.190488,-0.27679 0.0222,-0.0814 0.0458,-0.15285 0.05246,-0.15878 0.02628,-0.0234 1.155934,-0.8661 1.370778,-1.02252 0.642011,-0.46744 0.918966,-0.61011 1.304828,-0.67216 l 0.120901,-0.0194 0.16161,0.0671 c 0.08889,0.037 0.169724,0.0749 0.17964,0.0844 0.02523,0.0242 0.149347,0.3244 0.149898,0.36258 2.51e-4,0.0173 -0.03242,0.13169 -0.07259,0.25429 l -0.07304,0.22289 -0.280971,0.24796 -0.280972,0.24795 -0.569867,0.28519 c -0.902588,0.45169 -1.214274,0.58009 -1.574353,0.64856 -0.09495,0.0181 -0.193834,0.0381 -0.219731,0.0445 l -0.04709,0.0117 -0.01792,0.31336 c -0.0099,0.17235 -0.02331,0.48896 -0.02991,0.70358 l -0.012,0.39022 -0.08507,0.0544 c -0.05508,0.0352 -0.08209,0.0622 -0.07662,0.0765 0.0047,0.0121 0.198682,0.30643 0.431178,0.65402 0.460474,0.68842 0.504469,0.76127 0.504469,0.8353 0,0.0791 -0.06018,0.23563 -0.108322,0.28174 -0.09459,0.0906 -0.653682,0.29211 -1.312084,0.47285 -0.518398,0.1423 -2.31054,0.59415 -2.549674,0.64284 -0.876751,0.17851 -2.753438,0.3994 -3.61065,0.42498 l -0.274664,0.008 z m 1.092807,-0.12421 0.729821,-0.0324 0.894621,-0.13187 0.89462,-0.13187 0.792602,-0.18956 c 1.821316,-0.43558 2.320683,-0.5681 2.958525,-0.78509 0.207175,-0.0705 0.399636,-0.13576 0.427692,-0.14509 l 0.05101,-0.017 v -0.17186 -0.17185 l -0.222208,-0.32383 c -0.255403,-0.3722 -0.43304,-0.6061 -0.500139,-0.65854 l -0.04671,-0.0365 v 0.18698 c 0,0.10284 -0.0047,0.3897 -0.01039,0.63747 l -0.01039,0.45049 -0.140035,0.12784 -0.140034,0.12784 -0.465609,0.092 c -1.008637,0.19935 -1.553623,0.29494 -1.948796,0.34182 l -0.149104,0.0177 -0.525786,-0.10995 c -0.688574,-0.14398 -1.003878,-0.21436 -1.594748,-0.35596 -0.268535,-0.0643 -0.507604,-0.11699 -0.531266,-0.11699 -0.05264,0 -0.243429,0.11108 -0.62332,0.36292 -0.470114,0.31165 -0.729326,0.51913 -0.904934,0.72432 -0.07651,0.0894 -0.08304,0.10308 -0.07668,0.16051 0.0039,0.0345 0.01815,0.0893 0.03182,0.12164 l 0.02487,0.0589 0.177371,1.2e-4 c 0.09755,7e-5 0.50579,-0.0144 0.907192,-0.0322 z m 5.994978,-3.99367 0.03342,-0.67489 0.05435,-0.0824 0.05435,-0.0824 h 0.203779 0.203779 l 0.38855,-0.17088 c 1.257408,-0.55301 1.585078,-0.74205 2.056154,-1.18621 l 0.14518,-0.13689 v -0.26185 -0.26185 l -0.09025,-0.0792 -0.09025,-0.0792 -0.330585,0.0329 -0.330586,0.0329 -0.171657,0.10859 c -0.355892,0.22512 -0.920982,0.63742 -1.646996,1.20166 -0.345627,0.26862 -0.361763,0.28429 -0.383629,0.37254 -0.02173,0.0877 -0.06118,0.15138 -0.209987,0.33895 l -0.110287,0.13901 0.01817,0.16704 c 0.01,0.0919 0.04653,0.41776 0.08121,0.72421 0.03467,0.30645 0.06304,0.56741 0.06304,0.57993 10e-7,0.0142 0.0054,0.0172 0.01441,0.008 0.0079,-0.008 0.02945,-0.31862 0.04783,-0.68981 z"
       id="path7103" /><path
       style="fill:#ff6600;fill-opacity:1;stroke:#000000;stroke-width:0;stroke-dasharray:none;stroke-opacity:1"
       d="m 16.934811,135.80243 c -0.79214,-0.13161 -1.742555,-0.30088 -1.754101,-0.31242 -0.0064,-0.006 -0.01333,-0.41182 -0.01544,-0.90099 l -0.0039,-0.88939 0.292093,-0.3296 c 0.558765,-0.63051 0.92835,-1.0365 1.035965,-1.13802 l 0.108278,-0.10215 0.478508,-0.0357 c 1.001182,-0.0748 1.300888,-0.0948 1.496988,-0.0999 l 0.202334,-0.006 0.494319,0.67412 0.494319,0.67413 -0.01127,1.03664 c -0.0082,0.7572 -0.01621,1.04145 -0.02961,1.05449 -0.017,0.0165 -1.449632,0.3021 -1.94884,0.38847 -0.363961,0.063 -0.375988,0.0628 -0.839688,-0.0143 z m 1.671527,-0.28928 c 0.772593,-0.15622 0.780739,-0.15835 0.793895,-0.20788 0.0062,-0.0233 0.01982,-0.47593 0.03028,-1.00589 l 0.01904,-0.96357 -0.390219,-0.55275 -0.390221,-0.55275 -0.204036,0.01 c -0.556563,0.0259 -1.256093,0.0906 -1.377245,0.12736 -0.07319,0.0222 -0.01797,0.12658 0.487847,0.92208 l 0.238052,0.37439 v 0.92336 c 0,0.5685 0.006,0.93899 0.01547,0.96404 0.03621,0.0952 0.144947,0.0899 0.777135,-0.0379 z M 17.2862,134.90422 c 0.0054,-0.35177 0.01385,-0.74905 0.01881,-0.88285 l 0.009,-0.24327 -0.34848,-0.54148 c -0.191664,-0.29781 -0.362226,-0.5609 -0.379027,-0.58464 -0.02732,-0.0386 -0.04015,-0.0432 -0.121457,-0.0432 h -0.09091 l -0.512282,0.58206 -0.512281,0.58206 v 0.74292 0.74291 l 0.07455,0.0246 c 0.0766,0.0253 0.285193,0.0498 0.523662,0.0617 l 0.13521,0.007 0.01024,-0.40228 c 0.0057,-0.22126 0.01461,-0.47168 0.01992,-0.55649 l 0.0097,-0.15421 0.08029,0.0103 c 0.119172,0.0153 0.194784,0.0404 0.235295,0.0779 0.03953,0.0367 0.03486,-0.0222 0.06703,0.84307 0.0057,0.15268 0.0151,0.28533 0.02094,0.29477 0.02181,0.0353 0.300701,0.0763 0.528172,0.0776 l 0.221814,0.001 z"
       id="path7104" /><path
       style="fill:#ff6600;fill-opacity:1;stroke:#000000;stroke-width:0;stroke-dasharray:none;stroke-opacity:1"
       d="m 18.308427,134.78651 c -0.006,-0.14028 -0.0085,-0.29034 -0.0056,-0.33348 l 0.0053,-0.0784 0.274664,-0.0583 c 0.151065,-0.0321 0.28979,-0.0586 0.308277,-0.0589 0.03274,-5.7e-4 0.0339,0.007 0.04475,0.28587 0.0061,0.15754 0.0087,0.30736 0.0057,0.33292 l -0.0055,0.0465 -0.290359,0.0585 c -0.159697,0.0322 -0.298436,0.0589 -0.308307,0.0594 -0.01235,6.2e-4 -0.02134,-0.0786 -0.02884,-0.25407 z"
       id="path7105" /></g></svg>
